<svg width="262" height="225" viewBox="0 0 262 225" fill="none" xmlns="http://www.w3.org/2000/svg">
<path d="M38 39H37V225H38V39Z" fill="#3D296B"/>
<path d="M50 39H49V225H50V39Z" fill="#3D296B"/>
<path d="M49 39H38V225H49V39Z" fill="#20327D"/>
<path d="M13 38H12V50H13V38Z" fill="#D698A4"/>
<path d="M250 213V212H262V213H250Z" fill="#F6365C"/>
<path d="M250 213H249V225H250V213Z" fill="#D38D9C"/>
<path d="M87 38H75V13H87V38Z" fill="#A81635"/>
<path d="M88 13V1H99V13H88Z" fill="#A81635"/>
<path d="M100 13H99V38H100V13Z" fill="#FB91A6"/>
<path d="M87 38H88V13H87V38Z" fill="#E1143B"/>
<path d="M74 38H75V50H74V38Z" fill="#BB2A4B"/>
<path d="M88 213V50H75V38H88V13H99V38H175V14H187V38H249V50H250V51H262V212H250V213H88Z" fill="#F6224B"/>
<path d="M163 88H162V113H163V88Z" fill="#F0BDC4"/>
<path d="M138 113H137V138H138V113Z" fill="#F0BDC4"/>
<path d="M163 138H162V163H163V138Z" fill="#F0BDC4"/>
<path d="M188 138H187V163H188V138Z" fill="#F24363"/>
<path d="M213 113H212V138H213V113Z" fill="#F24363"/>
<path d="M188 88H187V113H188V88Z" fill="#F24363"/>
<path d="M163 88V113H138V138H163V163H187V138H212V113H187V88H163Z" fill="white"/>
<path d="M88 213H87V50H88V213Z" fill="#DC123B"/>
<path d="M87 51V50H75V51H87Z" fill="#CB0D33"/>
<path d="M88 13H87V1H88V13Z" fill="#CD8291"/>
<path d="M174 13H100V1H174V13Z" fill="#F6224B"/>
<path d="M88 1V0H174V1H88Z" fill="#FEE1E7"/>
<path d="M175 1H174V13H175V1Z" fill="#FC8AA0"/>
<path d="M187 14V13H175V14H187Z" fill="#F5244C"/>
<path d="M163 38V13H175V38H163Z" fill="#A81635"/>
<path d="M163 13H162V38H163V13Z" fill="#D08494"/>
<path d="M250 38H249V50H250V38Z" fill="#F9A5B6"/>
<path d="M261 51V50H250V51H261Z" fill="#FEE7EB"/>
<path d="M249 225V213H87V51H75V50H74V39H50V225H249Z" fill="#A81635"/>
<path d="M50 39V38H74V39H50Z" fill="#A91F3D"/>
<path d="M13 39V38H37V39H13Z" fill="#A91F3D"/>
<path d="M13 39H37V225H13V213H12V212H0V51H12H13V50V39Z" fill="#A81635"/>
<path d="M1 51V50H12V51H1Z" fill="#F4E1E5"/>
<path d="M37 39V38H50V39H37Z" fill="#4E5C94"/>
<path d="M13 213H12V225H13V213Z" fill="#CF8593"/>
<path d="M1 213V212H12V213H1Z" fill="#AC2C47"/>
<path d="M0 213V212H1V213H0Z" fill="#BE576C"/>
<path d="M99 13V1H100V13H99Z" fill="#AF0829"/>
<path d="M12 51V50H13V51H12Z" fill="#AE3049"/>
</svg>
