<svg width="150" height="150" viewBox="0 0 150 150" fill="none" xmlns="http://www.w3.org/2000/svg">
<path fill-rule="evenodd" clip-rule="evenodd" d="M43.75 12.5H106.25V25H43.75V12.5ZM31.25 37.5V25H43.75V37.5H31.25ZM31.25 87.5H18.75V37.5H31.25V87.5ZM43.75 100H31.25V87.5H43.75V100ZM56.25 112.5H43.75V100H56.25V112.5ZM68.75 125H56.25V112.5H68.75V125ZM68.75 125H81V113H93.5V125.5H81.25V137.5H68.75V125ZM118.75 37.5H106.25V25H118.75V37.5ZM118.75 87.5V37.5H131.25V87.5H118.75ZM106.25 100V87.5H118.75V100H106.25ZM106.25 100V112.5H93.75V100H106.25ZM87.5 50H62.5V75H87.5V50Z" fill="white"/>
</svg>
