<svg width="150" height="150" viewBox="0 0 150 150" fill="none" xmlns="http://www.w3.org/2000/svg">
<path fill-rule="evenodd" clip-rule="evenodd" d="M93.75 12.5H106.25V25H118.75H131.25V37.5V50V62.5V125V137.5H118.75H31.25H18.75V125V62.5V50V37.5V25H31.25H43.75V12.5H56.25V25H93.75V12.5ZM56.25 37.5H43.75H31.25V50H118.75V37.5H106.25H93.75H56.25ZM31.25 62.5V125H118.75V62.5H31.25ZM43.75 75H56.25V87.5H43.75V75ZM81.25 75H68.75V87.5H81.25V75ZM93.75 75H106.25V87.5H93.75V75ZM56.25 100H43.75V112.5H56.25V100ZM68.75 100H81.25V112.5H68.75V100ZM106.25 100H93.75V112.5H106.25V100Z" fill="#F5244C"/>
</svg>
