<svg width="150" height="150" viewBox="0 0 150 150" fill="none" xmlns="http://www.w3.org/2000/svg">
<path fill-rule="evenodd" clip-rule="evenodd" d="M35.75 11.9167H107.25V23.8333H35.75V11.9167ZM23.8333 35.75L23.8333 23.8333L35.75 23.8333V35.75H23.8333ZM23.8333 107.25V35.75H11.9166V107.25H23.8333ZM35.75 119.167V107.25H23.8333L23.8333 119.167L35.75 119.167ZM107.25 119.167V131.083H35.75V119.167H107.25ZM119.167 107.25V119.167L107.25 119.167V107.25H119.167ZM119.167 35.75H131.083V107.25H119.167V35.75ZM119.167 35.75V23.8333L107.25 23.8333V35.75H119.167ZM65.5416 29.7917H77.4583V41.7083H95.3333V53.625H77.4583H65.5416H59.5833V65.5417H83.4166H95.3333L95.3333 77.4583V89.375V101.292L83.4166 101.292H77.4583V113.208H65.5416V101.292L47.6666 101.292V89.375H65.5416H77.4583H83.4166V77.4583H59.5833H47.6666V65.5417V53.625V41.7083H59.5833H65.5416V29.7917Z" fill="#F5244C"/>
</svg>
